# xmcd CD database file
#
# Track frame offsets:
#	150
#	17088
#	33626
#	53959
#	81306
#	111564
#	130304
#	162595
#	183585
#	203751
#	210926
#	239198
#	252331
#	272221
#	280653
#
# Disc length: 4439 seconds
#
# Revision: 1
# Processed by: cddbd v1.5.2PL0 Copyright (c) Steve Scherf et al.
# Submitted via: CDex 1.70beta2
#
DISCID=e811550f
DTITLE=Jan Garbarek - Visible World (incomplete)
DYEAR=1996
DGENRE=Jazz
TTITLE0=Red Wind
TTITLE1=The Creek
TTITLE2=The Surviror
TTITLE3=The Healing Smoke
TTITLE4=Visible World - chiaro
TTITLE5=Desolate Mountains I
TTITLE6=Desolate Mountains II
TTITLE7=Visible World - scuro
TTITLE8=Giulietta
TTITLE9=Desolate Mountains III
TTITLE10=Pygmy Lullaby
TTITLE11=The Quest
TTITLE12=The Arrow
TTITLE13=The Scythe
TTITLE14=Evening Land
EXTD=YEAR: 1996
EXTT0=
EXTT1=
EXTT2=
EXTT3=
EXTT4=
EXTT5=
EXTT6=
EXTT7=
EXTT8=
EXTT9=
EXTT10=
EXTT11=
EXTT12=
EXTT13=
EXTT14=
PLAYORDER=
